<mxfile host="Electron" modified="2024-03-17T17:12:50.438Z" agent="Mozilla/5.0 (Windows NT 10.0; Win64; x64) AppleWebKit/537.36 (KHTML, like Gecko) draw.io/24.0.4 Chrome/120.0.6099.109 Electron/28.1.0 Safari/537.36" etag="1-I4eaXI_oiv_byWxHi1" version="24.0.4" type="device">
  <diagram name="Seite-1" id="D4TpYz6-w0tNHncNLvST">
    <mxGraphModel dx="989" dy="582" grid="1" gridSize="10" guides="1" tooltips="1" connect="1" arrows="1" fold="1" page="1" pageScale="1" pageWidth="827" pageHeight="1169" math="0" shadow="0">
      <root>
        <mxCell id="0" />
        <mxCell id="1" parent="0" />
        <mxCell id="YYF-DklVYx8NRK1iDpUb-26" style="edgeStyle=orthogonalEdgeStyle;rounded=0;orthogonalLoop=1;jettySize=auto;html=1;exitX=0.5;exitY=1;exitDx=0;exitDy=0;" edge="1" parent="1" source="fsYiSwlMvPNJxTF11SXu-1">
          <mxGeometry relative="1" as="geometry">
            <mxPoint x="220" y="140" as="targetPoint" />
          </mxGeometry>
        </mxCell>
        <mxCell id="fsYiSwlMvPNJxTF11SXu-1" value="Mikrocontroller Initialisierung" style="rounded=1;whiteSpace=wrap;html=1;" parent="1" vertex="1">
          <mxGeometry x="160" y="40" width="120" height="40" as="geometry" />
        </mxCell>
        <mxCell id="YYF-DklVYx8NRK1iDpUb-6" style="edgeStyle=orthogonalEdgeStyle;rounded=0;orthogonalLoop=1;jettySize=auto;html=1;exitX=0.5;exitY=1;exitDx=0;exitDy=0;entryX=0.5;entryY=0;entryDx=0;entryDy=0;" edge="1" parent="1" source="fsYiSwlMvPNJxTF11SXu-2" target="YYF-DklVYx8NRK1iDpUb-2">
          <mxGeometry relative="1" as="geometry" />
        </mxCell>
        <mxCell id="fsYiSwlMvPNJxTF11SXu-2" value="Mikrofon-Signal auslesen" style="rounded=1;whiteSpace=wrap;html=1;" parent="1" vertex="1">
          <mxGeometry x="160" y="200" width="120" height="40" as="geometry" />
        </mxCell>
        <mxCell id="YYF-DklVYx8NRK1iDpUb-22" style="edgeStyle=orthogonalEdgeStyle;rounded=0;orthogonalLoop=1;jettySize=auto;html=1;exitX=0.5;exitY=1;exitDx=0;exitDy=0;entryX=0;entryY=0.5;entryDx=0;entryDy=0;" edge="1" parent="1" source="YYF-DklVYx8NRK1iDpUb-2" target="YYF-DklVYx8NRK1iDpUb-13">
          <mxGeometry relative="1" as="geometry" />
        </mxCell>
        <mxCell id="YYF-DklVYx8NRK1iDpUb-2" value="Schalldruckpegel berechnen" style="rounded=1;whiteSpace=wrap;html=1;" vertex="1" parent="1">
          <mxGeometry x="160" y="320" width="120" height="40" as="geometry" />
        </mxCell>
        <mxCell id="YYF-DklVYx8NRK1iDpUb-12" style="edgeStyle=orthogonalEdgeStyle;rounded=0;orthogonalLoop=1;jettySize=auto;html=1;exitX=0.5;exitY=0;exitDx=0;exitDy=0;entryX=0.5;entryY=1;entryDx=0;entryDy=0;" edge="1" parent="1" source="YYF-DklVYx8NRK1iDpUb-3" target="YYF-DklVYx8NRK1iDpUb-4">
          <mxGeometry relative="1" as="geometry" />
        </mxCell>
        <mxCell id="YYF-DklVYx8NRK1iDpUb-3" value="Schalldruckpegel mit LEDs wiedergeben" style="rounded=1;whiteSpace=wrap;html=1;" vertex="1" parent="1">
          <mxGeometry x="560" y="320" width="120" height="40" as="geometry" />
        </mxCell>
        <mxCell id="YYF-DklVYx8NRK1iDpUb-25" style="edgeStyle=orthogonalEdgeStyle;rounded=0;orthogonalLoop=1;jettySize=auto;html=1;exitX=0.5;exitY=0;exitDx=0;exitDy=0;entryX=1;entryY=0.5;entryDx=0;entryDy=0;" edge="1" parent="1" source="YYF-DklVYx8NRK1iDpUb-4" target="YYF-DklVYx8NRK1iDpUb-16">
          <mxGeometry relative="1" as="geometry" />
        </mxCell>
        <mxCell id="YYF-DklVYx8NRK1iDpUb-4" value="Schalldruckpegel in Speicher ablegen" style="rounded=1;whiteSpace=wrap;html=1;" vertex="1" parent="1">
          <mxGeometry x="560" y="200" width="120" height="40" as="geometry" />
        </mxCell>
        <mxCell id="YYF-DklVYx8NRK1iDpUb-23" style="edgeStyle=orthogonalEdgeStyle;rounded=0;orthogonalLoop=1;jettySize=auto;html=1;exitX=1;exitY=0.5;exitDx=0;exitDy=0;entryX=0.5;entryY=1;entryDx=0;entryDy=0;" edge="1" parent="1" source="YYF-DklVYx8NRK1iDpUb-13" target="YYF-DklVYx8NRK1iDpUb-3">
          <mxGeometry relative="1" as="geometry" />
        </mxCell>
        <mxCell id="YYF-DklVYx8NRK1iDpUb-13" value="Schalldruckpegel filtern" style="rounded=1;whiteSpace=wrap;html=1;" vertex="1" parent="1">
          <mxGeometry x="360" y="400" width="120" height="40" as="geometry" />
        </mxCell>
        <mxCell id="YYF-DklVYx8NRK1iDpUb-24" style="edgeStyle=orthogonalEdgeStyle;rounded=0;orthogonalLoop=1;jettySize=auto;html=1;entryX=0.5;entryY=0;entryDx=0;entryDy=0;" edge="1" parent="1" source="YYF-DklVYx8NRK1iDpUb-16" target="fsYiSwlMvPNJxTF11SXu-2">
          <mxGeometry relative="1" as="geometry" />
        </mxCell>
        <mxCell id="YYF-DklVYx8NRK1iDpUb-16" value="System in&amp;nbsp;&lt;div&gt;Low-Power-Modus&lt;/div&gt;" style="rounded=1;whiteSpace=wrap;html=1;" vertex="1" parent="1">
          <mxGeometry x="360" y="120" width="120" height="40" as="geometry" />
        </mxCell>
        <mxCell id="YYF-DklVYx8NRK1iDpUb-27" value="" style="curved=1;endArrow=classic;html=1;rounded=0;" edge="1" parent="1">
          <mxGeometry width="50" height="50" relative="1" as="geometry">
            <mxPoint x="320" y="360" as="sourcePoint" />
            <mxPoint x="320" y="200" as="targetPoint" />
            <Array as="points">
              <mxPoint x="440" y="370" />
              <mxPoint x="550" y="270" />
              <mxPoint x="430" y="190" />
              <mxPoint x="320" y="200" />
            </Array>
          </mxGeometry>
        </mxCell>
      </root>
    </mxGraphModel>
  </diagram>
</mxfile>
